<svg width="124" height="38" fill="none" xmlns="http://www.w3.org/2000/svg"><path d="M53.091 10.845l2.765-1.595c.488 1.116 1.301 1.914 2.765 1.914 1.464 0 1.789-.638 1.789-1.117 0-.797-.813-1.116-2.765-1.754-1.951-.478-4.066-1.435-4.066-4.146C53.58 1.595 55.856 0 58.133 0s4.066 1.116 5.042 3.03l-2.602 1.754c-.488-.956-1.139-1.594-2.44-1.594-.976 0-1.464.478-1.464.957 0 .637.326.956 2.44 1.594 2.114.638 4.391 1.276 4.391 4.147 0 2.552-2.114 4.146-5.042 4.146-2.764.16-4.553-1.275-5.367-3.19zm11.71-9.091c0-.957.813-1.754 1.79-1.754.975 0 1.788.797 1.788 1.754S67.566 3.51 66.59 3.51s-1.789-.798-1.789-1.755zm.325 2.552h2.928v9.569h-2.928V4.306zM79.6 7.974v5.901h-2.927V8.453c0-1.117-.813-1.755-1.626-1.755-1.138 0-1.789.638-1.789 1.914v5.263h-2.927V4.306h2.927v.957c.488-.638 1.464-1.116 2.765-1.116 1.789-.16 3.578 1.275 3.578 3.827zm6.994 3.509a2.72 2.72 0 001.952-.798l2.277 1.276c-.976 1.276-2.44 1.914-4.229 1.914-3.415 0-5.367-2.233-5.367-5.103 0-2.871 2.114-5.104 5.204-5.104 2.928 0 4.88 2.233 4.88 5.104 0 .478 0 .797-.163 1.116h-6.993c.325 1.276 1.3 1.595 2.44 1.595zm1.79-3.35c-.326-1.116-1.14-1.435-2.115-1.435-1.139 0-1.79.479-2.114 1.436h4.228zm13.823-.159v5.901H99.28V8.453c0-1.117-.814-1.755-1.627-1.755-1.138 0-1.789.638-1.789 1.914v5.263h-2.927V4.306h2.927v.957c.488-.638 1.464-1.116 2.765-1.116 1.952-.16 3.578 1.275 3.578 3.827zm8.132 5.901l-3.09-4.306v4.306h-2.928V.48h2.928v7.974l2.927-4.147h3.415l-3.578 4.785 3.578 4.784h-3.252z" fill="#000"/><path d="M113.591 9.09c0-2.87 2.277-5.103 5.205-5.103 2.927 0 5.204 2.233 5.204 5.104 0 2.87-2.277 5.103-5.204 5.103-2.928 0-5.205-2.233-5.205-5.103zm7.482 0c0-1.435-.976-2.232-2.277-2.232-1.301 0-2.277.957-2.277 2.233 0 1.275.976 2.232 2.277 2.232 1.301 0 2.277-.957 2.277-2.232zM56.995 19.616v13.397h-3.09V19.617h3.09zm12.197 3.828v9.09c0 3.19-2.602 4.625-5.204 4.625-1.952 0-3.74-.797-4.554-2.392l2.44-1.435c.325.638.975 1.276 2.276 1.276 1.302 0 2.277-.638 2.277-2.074v-.956c-.65.797-1.626 1.275-2.927 1.275-2.765 0-4.879-2.232-4.879-4.784 0-2.711 1.952-4.785 4.879-4.785 1.301 0 2.277.479 2.927 1.276v-.957h2.765v-.16zm-2.927 4.625c0-1.276-.976-2.233-2.44-2.233-1.463 0-2.277.798-2.277 2.233s.976 2.233 2.44 2.233 2.277-.957 2.277-2.233zm4.554.159c0-2.87 2.276-5.103 5.204-5.103 2.927 0 5.204 2.233 5.204 5.103 0 2.871-2.277 5.104-5.204 5.104-2.927 0-5.204-2.233-5.204-5.104zm7.48 0c0-1.435-.975-2.232-2.276-2.232-1.301 0-2.277.957-2.277 2.232 0 1.276.976 2.233 2.277 2.233 1.301 0 2.277-.957 2.277-2.233zm10.409-4.944v3.19c-1.138-.16-2.927.319-2.927 2.233v4.306h-2.928v-9.57h2.928v1.755c.325-1.276 1.626-1.914 2.927-1.914z" fill="#000"/><path d="M33.364 14.719c-2.277-1.435-4.39-2.87-6.668-4.306-.65-.32-1.138-.798-1.789-1.117-.325-.159-.325-.478-.488-.797 0-.319.326-.319.488-.478 2.44-.957 4.717-2.074 7.156-3.03l.976-.479c.65.797.976 1.595.813 2.711 0 .479-.162 1.117-.325 1.595-.488 1.116-1.464 1.754-2.602 2.233-.326.16-.65.16-.976.319-.163 0-.325.16-.325.319 0 .319.162.319.325.478a4.597 4.597 0 002.927 0c1.464-.319 2.277-1.116 2.765-2.233.488-.957.813-2.073.976-3.19 0-.318 0-.478.325-.478s.325.16.488.32c.163.159 0 .318 0 .318l-2.44 6.22c0 .16-.162.16-.162.319-.163.478-.325.957-.976.957-.162 0-.325.319-.488.319zm1.464 20.573c-.976-.16-1.789-.479-2.602-1.117-1.139-1.116-1.952-2.392-2.602-3.668-.326-.478-.488-1.116-.65-1.754-.163-.478-.326-.957-.651-1.276-.163-.319-.488-.478-.65-.638-.489-.319-.814-.16-.977.479 0 .478 0 .797-.162 1.276-.163 1.275-1.627 2.232-2.928 1.913-1.789-.478-2.765-1.754-3.74-3.03-.163-.16-.163-.319.162-.478 1.952-.798 3.904-1.755 5.693-2.711.325-.16.65-.479 1.138 0 0 0 .162.16.162 0 .814-.16.976.478 1.302.956 2.114 3.35 4.228 6.858 6.342 10.207l.163-.16zm-13.661-15.47a78.124 78.124 0 01-1.627-2.073c-.488-.638-.325-1.116.488-1.276 1.301-.16 2.44-.319 3.74-.638.489 0 .814-.16 1.14.32.975.159.975.956 1.138 1.594l.976 3.349c.162.319.162.638-.163.957-.163 0-.163.16-.163.319 0 .638-.488.957-.976 1.116-1.951.957-3.903 1.755-5.692 2.712-.813-1.755-.488-3.35.976-4.626.813-.637 1.789-1.116 2.765-1.435.162-.16.488-.16.488-.478 0-.32-.326-.32-.65-.32-.977.16-1.79.16-2.44.48zM36.78 30.189h-1.952c-.813 0-1.138.319-1.138 1.276 0 .478.325.797.162 1.275a459.807 459.807 0 01-4.554-7.336c-.325-.478-.487-.797-.813-1.276-.162-.16-.162-.319 0-.478.163-.16.326-.16.488 0 1.627.478 3.416 1.116 5.042 1.595.325.16.325.16.488.478.162.479.488.798.975.957.163 0 .326 0 .326.319.325.957.65 2.073.976 3.19zM1.325 19.025c1.301-.479 2.602-.638 3.74-.957.163 0 .489-.16.651-.16.488-.159.814-.319 1.139.16.162.16.325.319.488.319.65 0 .976.319 1.3.797a24.322 24.322 0 001.79 2.552c-.813.797-1.79 1.116-2.928 1.116-.813 0-1.789-.319-2.602-.478-.488-.16-.813-.638-1.3-.797-1.302-.638-1.627-1.755-2.278-2.552zm33.991-5.423c.813-1.754 1.464-3.668 2.277-5.422.162-.319.162-.638.488-.957.65.957.813 1.754.813 2.711 0 .638-.325 1.276-.65 1.914-.163.16-.326.479-.326.638-.163.16-.163.319 0 .638h.325c.163 0 .325-.16.488-.16 1.952-.478 3.253 0 4.229 1.914 0 .479.162.798.162 1.276-1.138 0-2.277-.16-3.252-.319-1.139-.16-2.44-.319-3.578-.319-.488 0-.65-.16-.976-.478-.325-.479-.325-.638 0-1.117v-.319zm-.163 10.048c0 .957-.488 1.276-1.138 1.116-1.627-.478-3.09-.957-4.717-1.435-.65-.16-.975-1.116-.325-1.595 1.301-1.116 2.277-2.552 3.578-3.668.325-.319.65-.797 1.139-1.116.162-.16.325-.32.487-.16.326 0 .326.32.326.479.162.797.162 1.594.325 2.392 0 .319 0 .478-.325.638-.326.319-.813.638-1.139.957-.162.16-.162.319 0 .478.163.16.326.16.488.16 1.139-.16 1.139-.16 1.301.956-.162.16-.162.479 0 .798zM1.325 14.878c.488-.957.813-2.073 1.79-2.87a2.72 2.72 0 011.95-.798c.651 1.595 1.14 3.19 1.952 4.785-.162.797-.487 1.435-1.463 1.595-1.301.159-2.44.478-3.578.797-.813.16-.813 0-.976-.638-.163-.957.163-1.914.325-2.87z" fill="#4700FF"/><path d="M33.364 16.154c0 .16-.162.319-.325.319-1.626 1.754-3.09 3.509-4.716 5.103-.326.32-.814.16-1.139-.319-.325-1.275-.65-2.392-1.138-3.668 0-.16 0-.319-.163-.319-.325-.956.163-1.595 1.139-1.595h5.366c.651 0 .976 0 .976.479zm-16.1-.638c-.814-.797-1.79-1.595-2.765-2.552-.65-.478-.65-1.116.162-1.276.65-.159 1.139-.478 1.79-.637.162.319 0 .637 0 .957 0 .159 0 .478.325.478s.325-.16.488-.319c.162-.319.325-.797.325-1.116 0-.479.325-.638.65-.638 1.139-.32 2.277-.798 3.416-1.117.162 0 .325-.319.65 0 .163.32 0 .479-.163.638-.975 1.436-1.788 2.87-2.764 4.466-.163.16-.326.478-.326.638v.16l-.162.159c-.325.319-.976.16-1.627.16zm-10.084 0c-.488-1.435-1.138-2.87-1.626-4.306.325 0 .65.16.976.32.487.159.975.478 1.3.796.163.16.326.32.651.16a.478.478 0 000-.638c-.162-.797-.65-1.116-1.3-1.435-.489-.16-.489-.32-.326-.638.162-.32.325-.638.488-.957.325-.16.488.16.65.16 1.139.797 2.277 1.594 3.416 2.232.65.478.65 1.276.162 1.914l-3.252 3.19c-.488-.16-.976-.16-1.139-.798zm13.499 4.466c-1.139.637-1.952 1.594-2.928 2.392-.813.797-1.951 1.276-3.09 1.435-.813 0-1.626 0-2.277-.478 1.301-1.436 2.602-3.03 4.066-4.466l.65-.638c.326-.638.977-.638 1.627-.638.163 0 .325.16.325.32.488.637 1.139 1.275 1.627 2.073zm4.228-7.018c-.325-.956-.488-1.754-.813-2.71 0-.32-.325-.48 0-.798.325-.32.65.16.813.16 2.44 1.594 5.042 3.189 7.481 4.943.163.16.326.16.488.32.163.318.326.478-.162.478H27.02c-.162 0-.487.16-.65-.16-.163-.478-.488-.638-.976-.797-.325 0-.325-.32-.325-.479 0-.319 0-.638-.163-.957zm10.083 6.699c-.162-.957-.162-1.755-.325-2.711 0-.479.65-1.117 1.139-1.117 1.951.16 3.74.32 5.692.638h.163c.488.16 1.138-.16 1.138.32 0 .637 0 1.275-.325 1.913-.488.797-1.301.797-1.952.638-1.626-.32-3.578-.638-5.53.319zm7.32 4.625c.162.956 0 1.754-.326 2.551-.813 1.755-2.277 2.712-4.229 3.19-.325.16-.488 0-.65-.319l-.976-2.87v-.64c.325-.797.976-.957 1.789-1.116 1.464-.16 2.927-.478 4.391-.797zm-22.932-9.25c.976-1.595 2.114-3.19 3.09-4.944.162-.16.162-.479.488-.479.488 0 .488.32.65.638.325 1.117.488 2.233.976 3.19v.319c.163.797-.325 1.595-1.138 1.754-1.302.16-2.44.32-3.741.479-.813.159-.813-.16-.65-.798.162 0 .325 0 .325-.16zm15.938 6.379c3.578-.638 6.343.638 6.83 2.392-.487.32-.975.32-1.626.479-1.138.319-2.44.478-3.74.797-.326 0-.488.16-.488-.16 0 0 0-.159-.163-.159-.813-.319-.813-.957-.813-1.595v-1.754zM12.71 22.533c.162-.957.325-1.914.162-2.87 0-.638-.162-1.276-.162-1.914 0-.479.162-.638.65-.638 1.139 0 2.277-.16 3.416-.16.162 0 .325 0 .488.16.162.16 0 .319-.163.478-1.464 1.595-2.928 3.19-4.391 4.944zm.162-5.9c-.162-1.117.163-2.233.163-3.19.163-.479.488-.638.976-.319.976.957 2.114 1.754 3.09 2.711.162.479-.163.638-.488.638-1.301 0-2.44.16-3.74.16zm-2.277 4.625c-.65-1.117-1.463-2.074-2.114-3.03-.325-.32 0-.958.488-.958.976 0 1.952-.318 2.928-.159-.326 1.435 0 3.03-1.302 4.147zm-2.114-4.785c.976-.638 1.627-1.595 2.44-2.233l1.138-1.116c.163 0 .163-.16.488-.16.163.16.163.32.163.479v.797c-.163.798-.163 1.595-.163 2.393-1.138.159-2.277.159-3.415.159-.326 0-.65 0-.65-.319zM7.668 8.34c.488-1.436 1.464-2.074 2.602-2.393 1.464-.319 2.765-.319 4.066.32.65.318.65.318.325 1.116-.325.957-.813 2.073-1.138 3.03-.325.638-1.301.797-1.79.478-1.463-.797-2.764-1.754-4.065-2.551zm8.62-4.147c.488-.957 1.3-1.276 2.276-1.754.488-.16.976-.16 1.627-.32a8.048 8.048 0 012.765 0c.325 0 .488.16.488.48v1.753c0 .638 0 .638-.651.638h-.488c-.163 0-.488 0-.488.32-.162.318.163.478.325.478.326.16.488.16.814.16.325 0 .488.159.488.478v.638c0 .319-.651.638-.976.319-2.277-.957-4.229-2.074-6.18-3.19zm16.588-.16a36.19 36.19 0 00-3.415 1.436 60.64 60.64 0 00-4.716 2.073c-.65.319-1.139 0-1.139-.797v-.638c.65-.16 1.464-.16 2.114-.479 1.302-.319 2.603-.957 3.09-2.392.163-.319.326-.478.651-.478 1.301 0 2.44.319 3.415 1.275zm-16.426.638c1.79 1.117 3.74 2.233 5.53 3.35.488.318.488.478 0 .637-1.301.479-2.602.957-3.903 1.276h-.326c-.162-.478 0-.957 0-1.276-.162-.797-.488-1.435-.813-2.073-.325-.319-.488-.797-.65-1.116-.163-.32 0-.638.162-.798zm-1.138 2.392a4.712 4.712 0 011.138 3.03c0 .32 0 .48-.325.639-.488.16-1.138.319-1.789.638-.163 0-.325 0-.65-.16-.163-.16 0-.319 0-.478.65-1.117 1.138-2.393 1.626-3.669zm8.457-2.073c-.163-.797 0-1.595 0-2.552.813.16 1.464.479 1.464 1.117 0 .797-.488 1.276-1.464 1.435z" fill="#4700FF"/></svg>