<svg width="21" height="20" fill="none" xmlns="http://www.w3.org/2000/svg"><path d="M16.16 7.692h-1.538a2.31 2.31 0 00-2.308-2.307V3.846a3.85 3.85 0 013.846 3.846z" fill="#797683"/><path d="M19.237 7.692H17.7a5.39 5.39 0 00-5.385-5.384V.769a6.93 6.93 0 016.923 6.923zM17.699 20h-.13C2.452 19.13.306 6.377.006 2.485A2.308 2.308 0 012.314 0h4.054A1.538 1.538 0 017.8.97l1.17 2.876a1.538 1.538 0 01-.34 1.662L6.992 7.16a7.2 7.2 0 005.831 5.847l1.67-1.654a1.538 1.538 0 011.668-.316l2.9 1.162a1.538 1.538 0 01.947 1.43v4.062A2.308 2.308 0 0117.698 20zM2.314 1.538a.77.77 0 00-.769.831C1.9 6.923 4.168 17.692 17.653 18.461a.77.77 0 00.814-.721l.001-.048v-4.061l-2.9-1.162-2.208 2.192-.369-.046c-6.692-.838-7.6-7.53-7.6-7.6l-.046-.369L7.53 4.438l-1.154-2.9H2.314z" fill="#797683"/></svg>