<svg width="24" height="24" fill="none" xmlns="http://www.w3.org/2000/svg"><path fill-rule="evenodd" clip-rule="evenodd" d="M12 24C5.373 24 0 18.627 0 12S5.373 0 12 0s12 5.373 12 12-5.373 12-12 12zm.396-5.324c3.934-.001 7.133-3.202 7.135-7.135 0-1.907-.74-3.7-2.088-5.048A7.09 7.09 0 0012.395 4.4c-3.933 0-7.134 3.2-7.135 7.135a7.13 7.13 0 00.952 3.567L5.2 18.8l3.783-.992a7.13 7.13 0 003.41.868h.002z" fill="#4700FF"/><path fill-rule="evenodd" clip-rule="evenodd" d="M9.158 16.516l-2.245.589.6-2.189-.142-.224a5.916 5.916 0 01-.906-3.156 5.94 5.94 0 015.933-5.93 5.89 5.89 0 014.193 1.739 5.895 5.895 0 011.735 4.195 5.94 5.94 0 01-5.93 5.931h-.003a5.922 5.922 0 01-3.018-.826l-.217-.13zm6.832-3.278c-.044-.075-.163-.12-.341-.209-.179-.089-1.055-.52-1.219-.58-.163-.06-.282-.089-.4.09-.12.178-.461.58-.565.699-.104.119-.208.133-.387.044-.178-.089-.752-.277-1.433-.885a5.372 5.372 0 01-.992-1.235c-.104-.178-.011-.275.078-.364.08-.08.178-.208.267-.312.09-.104.12-.179.179-.298.06-.119.03-.223-.015-.312-.045-.09-.401-.967-.55-1.324-.145-.347-.292-.3-.401-.306a7.074 7.074 0 00-.342-.006.655.655 0 00-.475.223c-.164.179-.624.61-.624 1.487 0 .878.639 1.726.728 1.845.089.119 1.257 1.92 3.046 2.692.425.184.757.293 1.016.376.427.135.816.116 1.123.07.342-.051 1.055-.431 1.204-.848.148-.416.148-.773.103-.847z" fill="#4700FF"/></svg>