<svg width="61" height="19" fill="none" xmlns="http://www.w3.org/2000/svg"><path d="M5.023 14.836h7.16V18H.91V.937h4.113v13.899zM27.617 9.82c0 1.664-.308 3.137-.926 4.418-.617 1.282-1.496 2.27-2.636 2.965-1.133.688-2.426 1.031-3.88 1.031-1.452 0-2.741-.332-3.866-.996-1.125-.672-2.004-1.629-2.637-2.87-.625-1.243-.953-2.669-.985-4.278v-.961c0-1.672.305-3.145.915-4.418.617-1.281 1.496-2.27 2.636-2.965 1.149-.695 2.453-1.043 3.914-1.043 1.446 0 2.735.344 3.867 1.031 1.133.688 2.012 1.668 2.637 2.942.633 1.265.953 2.719.961 4.36v.784zm-4.183-.715c0-1.695-.286-2.98-.856-3.855-.562-.883-1.371-1.324-2.426-1.324-2.062 0-3.152 1.547-3.27 4.64l-.01 1.254c0 1.672.276 2.957.831 3.856.555.898 1.379 1.347 2.473 1.347 1.039 0 1.84-.441 2.402-1.324.563-.883.848-2.152.856-3.808v-.786zm20.273 6.785c-.633.704-1.559 1.27-2.777 1.7-1.22.43-2.555.644-4.008.644-2.234 0-4.02-.683-5.356-2.05-1.335-1.368-2.05-3.27-2.144-5.707L29.41 9c0-1.68.297-3.145.89-4.395.595-1.257 1.442-2.222 2.544-2.894 1.11-.68 2.39-1.02 3.843-1.02 2.126 0 3.774.489 4.946 1.465 1.18.969 1.867 2.418 2.062 4.348h-3.96c-.141-.953-.446-1.633-.915-2.04-.468-.405-1.133-.609-1.992-.609-1.031 0-1.828.438-2.39 1.313-.563.875-.848 2.125-.856 3.75v1.031c0 1.703.29 2.985.867 3.844.586.852 1.504 1.277 2.754 1.277 1.07 0 1.867-.238 2.39-.715v-2.648h-2.859V8.883h6.973v7.008zm16.84-6.07c0 1.664-.309 3.137-.926 4.418-.617 1.282-1.496 2.27-2.637 2.965-1.132.688-2.425 1.031-3.879 1.031-1.453 0-2.742-.332-3.867-.996-1.125-.672-2.004-1.629-2.636-2.87-.625-1.243-.954-2.669-.985-4.278v-.961c0-1.672.305-3.145.914-4.418.617-1.281 1.496-2.27 2.637-2.965 1.148-.695 2.453-1.043 3.914-1.043 1.445 0 2.734.344 3.867 1.031 1.133.688 2.012 1.668 2.637 2.942.633 1.265.953 2.719.96 4.36v.784zm-4.184-.715c0-1.695-.285-2.98-.855-3.855-.563-.883-1.371-1.324-2.426-1.324-2.063 0-3.152 1.547-3.27 4.64l-.011 1.254c0 1.672.277 2.957.832 3.856.554.898 1.379 1.347 2.472 1.347 1.04 0 1.84-.441 2.403-1.324.562-.883.847-2.152.855-3.808v-.786z" fill="#797683"/></svg>